<?xml version="1.0" encoding="UTF-8"?>
<svg xmlns="http://www.w3.org/2000/svg" xmlns:xlink="http://www.w3.org/1999/xlink" width="16px" height="16px" viewBox="0 0 16 16" version="1.1" style="background-color: #f5f5f5;">
<g id="surface1">
<path style=" stroke:none;fill-rule:nonzero;fill:rgb(100%,65.882353%,0%);fill-opacity:1;" d="M 10.78125 10.949219 L 10.390625 12.234375 C 10.121094 12.296875 9.894531 12.375 9.683594 12.449219 C 9.230469 12.605469 8.839844 12.742188 8 12.742188 C 7.585938 12.742188 7.277344 12.707031 7.019531 12.65625 C 6.894531 12.371094 6.816406 11.957031 6.871094 11.78125 L 7.433594 9.929688 Z M 10.78125 10.949219 "/>
<path style=" stroke:none;fill-rule:nonzero;fill:rgb(0%,0%,0%);fill-opacity:1;" d="M 15.445312 12.742188 C 15.746094 12.742188 15.988281 12.984375 15.988281 13.28125 C 15.988281 13.578125 15.746094 13.820312 15.445312 13.820312 C 14.425781 13.820312 13.886719 13.632812 13.410156 13.46875 C 12.953125 13.308594 12.5625 13.171875 11.722656 13.171875 C 10.882812 13.171875 10.492188 13.308594 10.039062 13.46875 C 9.5625 13.632812 9.023438 13.820312 8 13.820312 C 6.976562 13.820312 6.4375 13.632812 5.960938 13.46875 C 5.507812 13.308594 5.117188 13.171875 4.277344 13.171875 C 3.4375 13.171875 3.046875 13.308594 2.59375 13.46875 C 2.117188 13.632812 1.574219 13.820312 0.554688 13.820312 C 0.253906 13.820312 0.0117188 13.578125 0.0117188 13.28125 C 0.0117188 12.984375 0.253906 12.742188 0.554688 12.742188 C 1.394531 12.742188 1.785156 12.605469 2.238281 12.449219 C 2.714844 12.28125 3.253906 12.09375 4.277344 12.09375 C 4.953125 12.09375 5.417969 12.175781 5.796875 12.28125 C 5.746094 11.992188 5.761719 11.71875 5.835938 11.464844 L 6.402344 9.617188 L 6.320312 9.589844 C 6.183594 9.546875 6.070312 9.453125 6 9.328125 C 5.933594 9.203125 5.917969 9.054688 5.960938 8.917969 C 6.566406 6.929688 8.40625 7.136719 9.46875 7.402344 L 9.488281 7.347656 C 9.066406 7.011719 8.054688 6.367188 6.515625 6.488281 C 4.351562 6.65625 2.59375 5.785156 1.429688 3.96875 C 0.578125 2.636719 0.351562 1.269531 0.34375 1.210938 C 0.296875 0.917969 0.496094 0.640625 0.792969 0.59375 C 1.085938 0.546875 1.363281 0.746094 1.410156 1.042969 C 1.410156 1.054688 1.617188 2.269531 2.355469 3.414062 C 3.304688 4.875 4.675781 5.546875 6.433594 5.410156 C 8 5.289062 9.148438 5.816406 9.816406 6.257812 L 10.03125 5.5625 C 10.117188 5.277344 10.417969 5.117188 10.703125 5.203125 C 10.988281 5.289062 11.148438 5.59375 11.0625 5.878906 L 10.5 7.71875 C 11.214844 7.980469 11.722656 8.277344 12.078125 8.636719 C 12.496094 9.058594 12.917969 9.796875 12.570312 10.929688 C 12.5 11.164062 12.285156 11.3125 12.054688 11.3125 C 12 11.3125 11.949219 11.304688 11.894531 11.289062 L 11.816406 11.265625 L 11.5625 12.097656 C 11.613281 12.09375 11.667969 12.09375 11.722656 12.09375 C 12.746094 12.09375 13.285156 12.28125 13.761719 12.449219 C 14.214844 12.605469 14.609375 12.742188 15.445312 12.742188 Z M 7.222656 8.738281 L 11.617188 10.078125 C 11.605469 9.746094 11.457031 9.542969 11.3125 9.398438 C 11.011719 9.09375 10.476562 8.824219 9.675781 8.582031 C 8.214844 8.136719 7.5625 8.273438 7.222656 8.738281 Z M 10.390625 12.234375 L 10.78125 10.949219 L 7.433594 9.929688 L 6.871094 11.78125 C 6.816406 11.957031 6.894531 12.371094 7.019531 12.65625 C 7.277344 12.707031 7.585938 12.742188 8 12.742188 C 8.839844 12.742188 9.230469 12.605469 9.683594 12.449219 C 9.894531 12.375 10.121094 12.296875 10.390625 12.234375 Z M 10.390625 12.234375 "/>
<path style=" stroke:none;fill-rule:nonzero;fill:rgb(0%,0%,0%);fill-opacity:1;" d="M 15.445312 14.332031 C 15.746094 14.332031 15.988281 14.574219 15.988281 14.875 C 15.988281 15.171875 15.746094 15.414062 15.445312 15.414062 C 14.425781 15.414062 13.886719 15.226562 13.410156 15.058594 C 12.953125 14.902344 12.5625 14.765625 11.722656 14.765625 C 10.882812 14.765625 10.492188 14.902344 10.039062 15.058594 C 9.5625 15.226562 9.023438 15.414062 8 15.414062 C 6.976562 15.414062 6.4375 15.226562 5.960938 15.058594 C 5.507812 14.902344 5.117188 14.765625 4.277344 14.765625 C 3.4375 14.765625 3.046875 14.902344 2.59375 15.058594 C 2.117188 15.226562 1.574219 15.414062 0.554688 15.414062 C 0.253906 15.414062 0.0117188 15.171875 0.0117188 14.875 C 0.0117188 14.574219 0.253906 14.332031 0.554688 14.332031 C 1.394531 14.332031 1.785156 14.199219 2.238281 14.039062 C 2.714844 13.875 3.253906 13.6875 4.277344 13.6875 C 5.300781 13.6875 5.839844 13.875 6.316406 14.039062 C 6.769531 14.199219 7.160156 14.332031 8 14.332031 C 8.839844 14.332031 9.230469 14.199219 9.683594 14.039062 C 10.160156 13.875 10.703125 13.6875 11.722656 13.6875 C 12.746094 13.6875 13.285156 13.875 13.761719 14.039062 C 14.214844 14.199219 14.609375 14.332031 15.445312 14.332031 Z M 15.445312 14.332031 "/>
<path style=" stroke:none;fill-rule:nonzero;fill:rgb(82.745098%,32.941176%,0%);fill-opacity:1;" d="M 11.617188 10.078125 L 7.222656 8.738281 C 7.5625 8.273438 8.214844 8.136719 9.675781 8.582031 C 10.476562 8.824219 11.011719 9.09375 11.3125 9.398438 C 11.457031 9.542969 11.605469 9.746094 11.617188 10.078125 Z M 11.617188 10.078125 "/>
</g>
</svg>
