<?xml version="1.0" encoding="UTF-8"?>
<svg xmlns="http://www.w3.org/2000/svg" xmlns:xlink="http://www.w3.org/1999/xlink" width="22px" height="22px" viewBox="0 0 22 22" version="1.1">
<g id="surface1">
<path style=" stroke:none;fill-rule:nonzero;fill:rgb(96.08%,96.08%,96.08%);fill-opacity:1;" d="M 21.820312 6.101562 C 21.691406 5.921875 21.484375 5.8125 21.261719 5.8125 L 6.671875 5.8125 L 5.566406 2.003906 C 5.132812 0.503906 4.105469 0.339844 3.683594 0.339844 L 0.738281 0.339844 C 0.359375 0.339844 0.0546875 0.648438 0.0546875 1.023438 C 0.0546875 1.402344 0.359375 1.707031 0.738281 1.707031 L 3.679688 1.707031 C 3.773438 1.707031 4.058594 1.707031 4.253906 2.375 L 8.050781 16.339844 C 8.136719 16.632812 8.402344 16.835938 8.710938 16.835938 L 17.992188 16.835938 C 18.277344 16.835938 18.535156 16.65625 18.632812 16.386719 L 21.902344 6.722656 C 21.980469 6.515625 21.949219 6.28125 21.820312 6.101562 Z M 17.511719 15.472656 L 9.230469 15.472656 L 7.054688 7.175781 L 20.292969 7.175781 Z M 16.15625 18.222656 C 15.207031 18.222656 14.4375 18.992188 14.4375 19.941406 C 14.4375 20.890625 15.207031 21.660156 16.15625 21.660156 C 17.105469 21.660156 17.875 20.890625 17.875 19.941406 C 17.875 18.992188 17.105469 18.222656 16.15625 18.222656 Z M 9.96875 18.222656 C 9.019531 18.222656 8.25 18.992188 8.25 19.941406 C 8.25 20.890625 9.019531 21.660156 9.96875 21.660156 C 10.917969 21.660156 11.6875 20.890625 11.6875 19.941406 C 11.6875 18.992188 10.917969 18.222656 9.96875 18.222656 Z M 9.96875 18.222656 "/>
</g>
</svg>
