<?xml version="1.0" encoding="UTF-8"?>
<svg xmlns="http://www.w3.org/2000/svg" xmlns:xlink="http://www.w3.org/1999/xlink" width="22px" height="22px" viewBox="0 0 22 22" version="1.1">
<g id="surface1">
<path style=" stroke:none;fill-rule:nonzero;fill:rgb(96.08%,96.08%,96.08%);fill-opacity:1;" d="M 11.441406 14.210938 C 11.171875 14.476562 11.171875 14.914062 11.441406 15.183594 C 11.574219 15.316406 11.75 15.382812 11.925781 15.382812 C 12.101562 15.382812 12.28125 15.316406 12.414062 15.183594 L 16.472656 11.015625 L 12.414062 6.84375 C 12.144531 6.578125 11.710938 6.578125 11.441406 6.84375 C 11.171875 7.113281 11.171875 7.550781 11.441406 7.816406 L 13.929688 10.304688 L 0.683594 10.304688 C 0.304688 10.304688 -0.00390625 10.613281 -0.00390625 10.992188 C -0.00390625 11.371094 0.304688 11.679688 0.683594 11.679688 L 13.96875 11.679688 Z M 20.628906 0 L 8.253906 0 C 7.492188 0 6.878906 0.617188 6.878906 1.375 L 6.878906 7.5625 L 8.261719 7.5625 L 8.261719 2.214844 C 8.261719 1.753906 8.636719 1.382812 9.09375 1.382812 L 19.765625 1.382812 C 20.226562 1.382812 20.597656 1.753906 20.597656 2.214844 L 20.621094 19.792969 C 20.621094 20.253906 20.246094 20.625 19.789062 20.625 L 9.09375 20.625 C 8.636719 20.625 8.261719 20.253906 8.261719 19.792969 L 8.261719 14.414062 L 6.878906 14.417969 L 6.878906 20.625 C 6.878906 21.386719 7.496094 22 8.253906 22 L 20.628906 22 C 21.390625 22 22.003906 21.386719 22.003906 20.625 L 22.003906 1.375 C 22.003906 0.617188 21.386719 0 20.628906 0 Z M 20.628906 0 "/>
</g>
</svg>
