<?xml version="1.0" encoding="UTF-8"?>
<!-- 2022-10-27 16:26:01 Generated by QCAD 3.23.0 SVG Exporter -->
<svg width="334.4095mm" height="319.3404mm" viewBox="-129.2047 -191.6702 334.4095 319.3404" version="1.1" xmlns="http://www.w3.org/2000/svg" style="stroke-linecap:round;stroke-linejoin:round;fill:none">
    <g transform="scale(1,-1)">
        <!-- Hatch -->
        <path d="M-14.1609,-103.1974 C2.6015,-117.5038 21.4501,-115.5673 42.3851,-97.388 C50.6331,-89.3519 56.7871,-79.368 60.8469,-67.4365 C62.9451,-63.8707 63.8704,-63.9782 63.6227,-67.7591 C60.6981,-81.0977 54.5659,-91.8129 45.2261,-99.9049 C31.5238,-111.6073 17.1937,-116.6422 2.2359,-115.0098 C-8.6496,-113.4908 -14.1152,-109.5534 -14.1609,-103.1974 M-63.0494,2.338 C-63.0494,0.4127 -63.8296,-1.1478 -64.7922,-1.1478 C-65.7548,-1.1478 -66.535,0.4127 -66.535,2.338 C-66.535,4.2632 -65.7548,5.8237 -64.7922,5.8237 C-63.8296,5.8237 -63.0494,4.2632 -63.0494,2.338 M166.1547,-34.5078 C168.5552,-35.009 171.1157,-35.1166 173.8362,-34.8305 C172.7827,-39.7986 171.7499,-43.3059 170.7378,-45.3523 C169.6875,-42.2505 168.1599,-38.6356 166.1547,-34.5078 M162.0479,-59.7003 C163.3917,-59.7335 164.7799,-59.5341 163.4433,-61.4251 C163.1078,-62.3404 161.903,-64.2769 159.8286,-67.2346 C157.4174,-70.3338 155.9758,-70.0971 155.5036,-66.5245 C155.5036,-66.5245 154.3172,-59.69 154.3172,-59.69 C158.2834,-59.6672 160.8603,-59.6707 162.0479,-59.7003 M150.322,-78.8803 C162.9166,-81.3885 170.7532,-85.5138 176.6772,-95.484 C181.8651,-104.2146 185.8988,-109.3835 193.7644,-116.2542 C196.8519,-118.3216 196.6152,-119.3975 193.0545,-119.4819 C181.4519,-120.1498 171.2099,-117.998 162.3285,-113.0265 C155.1788,-109.7774 148.0764,-103.1389 142.5302,-97.3846 C140.6669,-95.4524 140.6134,-92.1257 144.3188,-94.9522 C154.6463,-107.2402 164.2856,-113.5875 173.237,-113.9943 C176.2887,-114.2042 175.1667,-112.1618 173.3892,-111.1741 C173.3892,-111.1741 160.456,-103.989 160.456,-103.989 C156.922,-101.7715 159.9656,-101.7709 162.0504,-102.1956 C163.6455,-102.5205 165.4435,-102.6472 167.4442,-102.576 C169.0767,-102.5179 168.9688,-102.5037 167.5722,-101.4397 C165.9593,-100.2108 162.8394,-98.2849 158.2127,-95.6621 C156.5688,-94.6287 156.5688,-94.0262 158.2127,-93.8548 C158.2127,-93.8548 166.2981,-93.744 166.2981,-93.744 C167.6963,-93.7249 168.4056,-93.6976 166.7426,-92.3627 C164.7638,-90.7749 160.0325,-89.4336 158.0015,-88.3453 C154.1026,-86.2558 151.2199,-84.6714 149.3537,-83.5924 C144.872,-80.3628 145.1947,-78.792 150.322,-78.8803 M54.656,-5.6613 C56.3316,-5.6613 57.6899,-7.2364 57.6899,-9.1793 C57.6899,-11.1222 56.3316,-12.6973 54.656,-12.6973 C52.9803,-12.6973 51.6221,-11.1222 51.6221,-9.1793 C51.6221,-7.2364 52.9803,-5.6613 54.656,-5.6613 M-46.6219,47.2822 C-45.0356,47.2822 -43.7495,45.924 -43.7495,44.2485 C-43.7495,42.573 -45.0356,41.2147 -46.6219,41.2147 C-48.2082,41.2147 -49.4943,42.573 -49.4943,44.2485 C-49.4943,45.924 -48.2082,47.2822 -46.6219,47.2822 M-76.0242,30.9016 C-74.6338,30.9016 -73.5067,29.7023 -73.5067,28.2228 C-73.5067,26.7433 -74.6338,25.544 -76.0242,25.544 C-77.4145,25.544 -78.5416,26.7433 -78.5416,28.2228 C-78.5416,29.7023 -77.4145,30.9016 -76.0242,30.9016 M-77.1847,78.4899 C-75.723,78.4899 -74.5381,77.3268 -74.5381,75.8918 C-74.5381,74.4568 -75.723,73.2937 -77.1847,73.2937 C-78.6463,73.2937 -79.8312,74.4568 -79.8312,75.8918 C-79.8312,77.3268 -78.6463,78.4899 -77.1847,78.4899 M-71.4729,62.8709 C-70.2964,62.8709 -69.3427,61.9606 -69.3427,60.8376 C-69.3427,59.7145 -70.2964,58.8042 -71.4729,58.8042 C-72.6493,58.8042 -73.603,59.7145 -73.603,60.8376 C-73.603,61.9606 -72.6493,62.8709 -71.4729,62.8709 M104.4103,170.5642 C106.3458,156.7557 104.194,141.8876 97.9546,125.96 C93.5913,117.7081 89.7454,115.4888 89.0103,105.4684 C88.5647,99.3848 90.0732,94.5381 96.0531,96.7498 C101.642,98.8167 101.5591,96.9051 97.6857,94.1289 C93.0115,90.7786 89.5579,90.8158 94.5303,85.8252 C97.9092,82.9415 103.4173,79.2406 111.0544,74.7224 C132.5396,64.3025 145.6648,56.7717 150.43,52.1296 C190.6933,15.9302 188.454,-31.0059 163.3395,-75.5503 C173.2175,-81.2593 179.6296,-87.2408 182.5756,-93.4951 C188.6674,-103.7291 194.3908,-111.2598 199.7458,-116.0873 C207.4125,-121.8269 207.0037,-125.3987 198.5193,-126.8028 C182.6938,-129.2238 168.9877,-126.5771 157.401,-118.8628 C148.774,-113.5913 141.5875,-106.8351 135.841,-98.5942 C134.3741,-96.7885 132.7602,-96.6164 130.9996,-98.0777 C120.8839,-107.2989 106.7041,-113.2159 88.4603,-115.8285 C73.5248,-118.2941 55.7519,-118.8534 35.1415,-117.5066 C19.0936,-122.8078 4.5481,-122.8507 -8.4949,-117.6354 C-17.715,-112.5545 -21.416,-106.3147 -19.5978,-98.9159 C-17.5377,-92.7369 -12.6098,-86.7414 -4.8143,-80.9299 C0.5206,-76.9524 4.7375,-70.4559 2.8659,-63.5423 C-0.9314,-63.065 -5.0197,-61.3866 -9.3986,-58.5074 C-14.45,-56.7524 -17.5052,-58.5169 -18.5647,-63.8005 C-21.425,-94.7186 -53.8102,-78.6401 -47.9348,-60.3142 C-57.0969,-59.4109 -58.6533,-52.1979 -65.3632,-48.9533 C-74.0676,-42.4093 -78.6984,-33.4758 -79.2552,-22.1526 C-79.342,-20.3862 -79.4303,-18.186 -79.2927,-16.4353 C-78.8502,-10.8135 -75.9234,-4.9246 -74.6583,0.8799 C-75.0456,5.0467 -74.0988,7.7148 -71.8182,8.8841 C-70.9686,11.4699 -69.4838,14.4178 -67.3642,17.7279 C-66.1134,21.259 -70.9898,18.7839 -72.748,18.1394 C-75.0771,17.2854 -77.1236,16.1032 -78.8875,14.593 C-85.472,8.9561 -93.5124,15.2416 -91.4414,21.924 C-86.5778,26.6014 -82.031,30.7927 -77.802,34.4982 C-76.5571,35.5886 -76.4601,35.9844 -74.8086,36.2536 C-67.9621,37.3711 -64.4265,33.3262 -64.2014,24.1189 C-60.3516,32.6523 -57.9631,38.591 -57.036,41.9351 C-55.6482,45.3838 -54.7875,51.1503 -54.454,59.2345 C-57.7734,64.5171 -57.9025,70.1115 -54.8413,76.0177 C-59.4594,75.7842 -63.5046,76.3007 -66.9768,77.5669 C-69.1065,74.5378 -69.2356,70.966 -67.3641,66.8516 C-63.2533,61.7615 -62.5217,57.8023 -65.1694,54.9744 C-69.4434,51.5958 -73.0151,51.6819 -75.8847,55.2326 C-77.1598,57.1627 -77.5472,59.9814 -77.0468,63.6888 C-78.0227,64.8115 -79.3782,65.8012 -81.1134,66.6578 C-83.4954,67.9754 -84.6041,69.7173 -84.4397,71.8835 C-84.0681,76.7755 -81.3855,82.292 -90.6028,81.5038 C-110.5699,83.8633 -122.8643,87.2031 -127.4862,91.5228 C-131.3098,95.0972 -128.0089,99.2302 -124.802,101.9939 C-125.4024,98.2919 -123.4929,95.3563 -119.0732,93.1869 C-109.5817,88.0293 -89.5281,84.6942 -58.9123,83.1815 C-60.0625,85.9709 -61.2888,88.2301 -62.5916,89.9592 C-92.6055,93.4489 -107.9251,96.827 -108.5506,100.0933 C-109.3627,102.2756 -106.8883,103.954 -101.1273,105.1282 C-102.817,102.9154 -102.2144,101.4306 -99.3197,100.674 C-91.986,97.8509 -80.367,96.0434 -64.4624,95.2516 C-64.4624,95.2516 -64.5264,96.833 -64.5264,96.833 C-75.1396,97.5815 -82.0357,99.077 -85.2145,101.3191 C-85.9864,104.5332 -82.6943,106.7064 -75.3384,107.8386 C-79.364,105.4776 -79.8372,103.6918 -76.7584,102.4809 C-74.1654,101.298 -70.0558,100.5879 -64.4293,100.3508 C-63.9274,112.2522 -58.3974,121.3322 -47.8396,127.5908 C-46.7418,137.0197 -44.8912,144.8517 -42.2881,151.0869 C-39.7294,154.8359 -37.6208,154.3194 -35.9623,149.5378 C-35.9623,149.5378 -38.5443,126.558 -38.5443,126.558 C-30.7722,120.0571 -27.2002,111.7946 -27.8285,101.7705 C-16.9352,102.678 -12.8469,105.1524 -15.5635,109.1935 C-11.6607,108.6749 -6.0272,106.7172 -11.4107,103.1257 C-14.9853,100.7409 -20.8023,99.0843 -27.828,98.1554 C-28.1591,96.9395 -28.6538,95.7667 -29.3119,94.6372 C-10.492,94.9227 0.7292,96.5794 4.3515,99.6073 C5.8415,100.9089 6.1699,102.3937 5.3367,104.0615 C8.3619,102.2309 12.3018,99.2298 8.0649,96.3146 C5.4763,94.5337 -1.6516,92.9417 -13.3184,91.5388 C-19.5047,90.6529 -25.2065,90.4377 -30.4242,90.8933 C-32.0697,87.7485 -33.7692,85.2203 -35.5226,83.3084 C-11.763,83.6393 8.2906,85.4681 24.6382,88.7949 C38.0703,90.4521 39.2321,94.6693 28.1238,101.4467 C28.1238,101.4467 38.0647,102.9956 38.0647,102.9956 C25.2015,114.0456 15.7897,127.9672 9.8297,144.7606 C52.4133,116.3709 78.5345,126.8434 99.038,191.6702 C102.1683,191.2767 103.9592,184.2415 104.4103,170.5642 M97.0261,151.0213 C95.4543,129.8398 82.2194,113.7009 82.0503,98.9296 C60.4841,104.8365 59.706,100.5437 43.9012,121.3285 C42.5261,124.4109 43.1071,124.9273 45.6442,122.8778 C49.1819,120.2479 53.466,115.9244 58.4966,109.9076 C59.9333,108.4348 61.6334,106.9614 63.4839,105.6217 C66.289,103.4951 66.6395,105.0449 65.3364,107.3141 C65.3364,107.3141 64.0469,109.6873 64.0469,109.6873 C61.7025,114.0455 60.1759,117.5879 59.4671,120.3139 C57.6587,127.27 63.0019,128.5969 65.622,122.3223 C66.8384,119.4099 67.8415,115.6072 68.6314,110.9145 C68.9403,106.0311 73.2224,105.5255 73.2471,111.2376 C73.0596,122.0503 73.4039,128.3978 74.28,130.28 C75.7773,129.5324 76.631,125.5455 76.8406,118.3194 C76.9766,113.628 78.3109,114.1005 79.9413,118.3198 C81.1606,121.4759 82.306,128.2932 83.3751,138.7331 C83.451,139.9602 84.1664,139.8731 84.115,138.66 C84.115,138.66 83.5343,125.0397 83.5343,125.0397 C83.7561,119.51 84.8643,119.1981 86.8594,124.1036 C90.2545,132.8218 93.0304,141.9451 95.1866,151.4734 C96.2667,155.5498 97.6545,155.1733 97.0261,151.0213 M-35.8632,96.4292 C-27.9555,97.9869 -29.875,95.0628 -32.9263,94.8496 C-42.4262,94.1839 -51.7944,94.4718 -61.0306,95.7136 C-54.3429,95.8234 -42.2498,95.1709 -35.8632,96.4292 M-55.0278,89.9047 C-55.0278,89.9047 -38.6965,90.0338 -38.6965,90.0338 C-39.7679,86.4371 -43.0616,83.9611 -46.8144,83.9314 C-50.5673,83.9018 -53.8998,86.3253 -55.0278,89.9047 M-49.1187,120.6805 C-47.6546,120.1573 -47.5639,116.6044 -48.9158,112.7449 C-50.2678,108.8854 -52.5506,106.1806 -54.0146,106.7036 C-55.4787,107.2267 -55.5694,110.7797 -54.2175,114.6392 C-52.8655,118.4988 -50.5827,121.2037 -49.1187,120.6805 M-19.7551,78.3143 C3.1578,79.1566 22.1684,82.0299 37.2766,86.9342 C42.9074,88.6353 47.0172,91.54 49.606,95.6481 C61.5163,92.949 72.6466,92.4475 82.7203,94.0987 C84.0879,91.9362 77.2456,89.0529 62.1934,85.449 C41.0332,78.8856 14.3955,74.8623 -17.7194,73.3792 C-17.7043,75.288 -18.4759,77.0468 -19.7551,78.3143 M124.7227,61.2173 C128.8782,59.308 125.5671,56.4088 132.5121,56.1258 C138.1033,56.1236 131.7657,49.5798 136.579,49.9939 C139.0655,50.2565 143.8703,50.9403 145.6609,48.8794 C146.3314,48.1074 146.9386,47.2406 147.7015,46.4575 C151.7318,42.3208 145.2442,43.7126 142.6177,44.5087 C138.3246,46.5096 136.7753,42.7656 140.8749,41.0231 C146.2113,38.9865 144.4985,38.4655 144.9369,35.2864 C145.1376,33.8323 146.8607,33.4422 150.1058,34.1164 C151.4341,34.3795 152.849,34.4654 154.3506,34.3743 C157.8548,33.5464 161.0881,30.319 164.0499,24.6921 C165.0146,22.8596 167.0603,19.3451 162.9358,21.5288 C162.0414,21.9441 161.2003,22.3276 160.4151,22.6867 C151.3897,26.8155 139.0095,29.1438 153.2309,21.3829 C154.6309,20.6192 157.4158,18.8134 155.3193,17.1709 C153.7934,15.9556 152.005,14.6455 149.9539,13.2404 C141.4026,18.2537 140.0363,17.5758 145.8551,11.2067 C146.5884,10.3277 146.5886,9.5639 145.8552,8.9153 C139.7103,1.9811 141.3811,3.124 149.8993,7.1155 C158.9472,0.2476 167.1719,-9.9182 174.558,-23.3525 C176.4751,-26.8886 175.7434,-27.2976 173.6543,-27.871 C171.5454,-29.0191 168.1138,-29.7832 163.3593,-30.1633 C158.9301,-22.8119 153.9763,-16.4315 148.4984,-11.0222 C142.9708,-5.5655 140.146,-7.3116 144.5959,-12.8724 C149.4332,-18.4591 153.2757,-23.6848 156.1036,-28.5151 C157.414,-30.7629 156.8224,-31.1795 154.0063,-31.1431 C151.1003,-30.9519 149.5611,-32.2225 149.3887,-34.9548 C149.3887,-34.9548 159.7201,-35.0533 159.7201,-35.0533 C160.9972,-38.1247 165.2628,-49.0982 164.521,-52.2638 C164.2966,-53.2217 163.7074,-53.7682 162.7539,-53.9021 C162.7539,-53.9021 152.7486,-53.8376 152.7486,-53.8376 C150.3891,-47.0859 148.3021,-42.3526 146.4874,-39.6377 C142.868,-35.3823 141.534,-35.9201 142.4854,-41.2514 C142.4854,-41.2514 147.3596,-52.484 147.3596,-52.484 C145.0139,-52.735 140.8504,-52.0251 134.8691,-50.3541 C132.1948,-49.6026 131.5814,-50.4633 133.0294,-52.9364 C134.9984,-55.1264 140.2674,-57.0307 148.8367,-58.6492 C149.6753,-60.6386 150.4153,-63.0827 150.9968,-65.7629 C152.9529,-73.0732 146.1349,-77.4506 141.7043,-66.4935 C140.3807,-63.783 139.0681,-63.7401 137.7666,-66.3648 C136.8839,-69.874 136.7118,-73.8761 137.2502,-78.3712 C137.9857,-85.2168 132.0152,-89.4991 119.3381,-91.2179 C116.0199,-91.5437 115.8371,-93.62 119.1768,-95.1232 C120.7456,-96.2133 120.8855,-97.031 119.5963,-97.5762 C119.5963,-97.5762 116.401,-99.4803 116.401,-99.4803 C108.9925,-104.1458 99.5682,-107.4486 88.1281,-109.389 C84.3361,-109.8377 84.1531,-108.9446 87.5794,-106.7101 C96.0887,-99.863 102.6122,-92.5805 107.1497,-84.8623 C110.3752,-80.3766 113.4966,-75.8364 116.6488,-71.304 C120.9524,-65.1161 122.8636,-58.2376 122.3815,-50.6827 C121.238,-38.8726 114.1268,-25.8769 101.0482,-11.6955 C98.3488,-9.357 98.5103,-7.2052 101.5325,-5.2402 C115.7256,4.7934 123.9021,15.4659 126.0618,26.777 C127.2483,39.73 125.1291,50.5853 119.7042,59.343 C117.2371,62.1926 115.4297,62.0311 114.282,58.8588 C113.9693,54.9056 112.5169,54.7013 109.9248,58.2457 C107.0194,62.0106 102.8022,65.6255 97.2729,69.0902 C92.8753,71.3357 89.4327,73.5521 86.9451,75.7391 C82.1987,80.4323 80.8475,84.2992 82.2317,84.9083 C84.3402,85.8364 89.3165,79.7684 91.7975,78.3405 C103.2665,71.7405 114.2416,66.0325 124.7227,61.2173 M69.6318,79.5098 C71.0056,84.2383 74.2702,79.7405 75.7455,78.0804 C78.464,75.021 81.5687,72.4205 85.0593,70.279 C93.1297,65.8139 99.4969,60.9743 104.1607,55.7597 C109.5432,49.3078 111.977,40.3632 111.465,28.9601 C110.6672,17.7362 105.6519,7.6839 96.4192,-1.1963 C95.3514,-2.3578 94.195,-3.2701 92.6814,-3.0572 C89.2414,-1.7931 83.4996,0.2713 89.0666,3.5916 C112.1531,18.1926 97.5307,36.6645 106.7471,35.9359 C108.1908,35.9175 108.5566,36.5417 107.8446,37.8083 C104.82,40.0911 104.0239,42.4149 105.4562,44.7797 C106.048,47.73 105.1659,48.4402 102.8096,46.9101 C101.9631,45.0085 100.414,43.4809 98.162,42.3271 C95.7574,41.797 94.1651,43.2387 93.3853,46.6521 C93.5831,48.5563 94.4191,50.3562 95.8931,52.0512 C97.7109,54.1419 97.3846,52.8934 95.5279,54.4562 C94.5417,55.2866 93.9875,56.3693 93.8658,57.7043 C93.7485,58.9921 94.2758,59.9022 92.1882,58.7273 C90.2752,57.6501 83.7962,48.2586 83.8971,58.0784 C84.5626,62.0658 83.2287,63.2815 79.8951,61.7256 C77.4826,60.1368 75.1588,60.9008 72.9236,64.0174 C69.7441,68.8822 68.6468,74.0464 69.6318,79.5098 M-19.5613,68.7521 C7.3914,67.3247 33.0523,70.5322 59.1598,78.2857 C60.6028,70.7935 65.7669,61.9287 74.6519,51.6911 C80.5587,46.4132 95.2855,33.0525 96.1278,24.7769 C97.2542,13.7096 81.8142,5.1163 73.7487,9.8619 C66.4686,13.6676 58.6795,14.184 50.3816,11.4112 C46.9585,8.4633 42.9563,8.2911 38.3752,10.8948 C28.1169,14.6337 16.8851,15.9676 4.6797,14.8966 C-3.5015,13.0996 -6.2301,13.2794 -14.0501,13.6349 C-17.7948,13.8054 -21.8798,13.3867 -26.3043,12.3787 C-26.8012,15.7487 -29.6484,18.274 -33.0537,18.3648 C-36.459,18.4555 -39.4366,16.0855 -40.1123,12.7467 C-40.7879,9.4079 -38.9659,6.0666 -35.7932,4.8263 C-34.8063,4.0287 -34.7418,2.9099 -35.5994,1.4698 C-36.8321,-6.969 -31.754,-17.0388 -20.3652,-28.7398 C-10.957,-37.5212 -3.7274,-46.214 1.3236,-54.818 C-4.1671,-52.3186 -11.614,-48.3185 -17.7809,-50.0737 C-22.1165,-51.3076 -25.5792,-54.8972 -26.2997,-60.5519 C-27.3445,-82.9169 -51.4116,-70.7124 -41.2507,-55.381 C-40.2163,-53.82 -40.6235,-51.6549 -41.1622,-49.7914 C-42.1299,-46.4447 -44.8447,-43.8915 -48.2444,-43.1308 C-50.6982,-42.2723 -52.1184,-45.8655 -50.1809,-47.5203 C-49.0921,-47.5705 -48.1476,-48.2884 -47.8077,-49.3239 C-47.4677,-50.3594 -47.803,-51.4974 -48.6502,-52.1832 C-49.4973,-52.8688 -50.68,-52.9598 -51.6221,-52.4117 C-52.5642,-51.8636 -53.0695,-50.7903 -52.892,-49.715 C-53.5184,-46.6268 -58.4123,-47.1924 -61.5403,-44.4201 C-72.7392,-34.4926 -75.6343,-21.5838 -70.2254,-5.6937 C-67.1234,-8.9672 -62.0951,-9.4833 -58.3928,-6.9084 C-54.6906,-4.3332 -53.425,0.5604 -55.4147,4.6076 C-57.4045,8.6547 -62.0525,10.641 -66.3526,9.2817 C-59.9902,22.2402 -55.6009,31.4495 -53.1846,36.9095 C-51.0192,33.7628 -47.1606,32.2452 -43.4318,33.0737 C-39.7029,33.9021 -36.8499,36.9108 -36.2206,40.6784 C-35.5913,44.4461 -37.3116,48.2185 -40.5689,50.2138 C-43.8262,52.2091 -47.9685,52.0279 -51.0389,49.7558 C-51.6027,51.7221 -51.6672,54.4117 -51.2326,57.8244 C-48.1244,60.8796 -46.1258,66.9002 -45.2373,75.8866 C-44.4884,77.1134 -42.9258,77.8014 -40.5897,77.9521 C-40.5897,77.9521 -29.8597,77.838 -29.8597,77.838 C-30.3165,77.2914 -30.6942,76.6656 -30.9697,75.9736 C-32.1921,72.9029 -31.0543,69.3972 -28.2618,67.6295 C-25.4692,65.8618 -21.8137,66.3334 -19.5613,68.7521 M154.0036,9.5144 C159.6597,12.9699 164.5224,12.6471 168.592,8.5461 C170.0254,6.7046 171.1115,5.2735 171.8507,4.2528 C173.8411,1.5037 175.3595,-4.5032 169.8831,-2.4273 C165.827,-1.0713 160.5339,2.9093 154.0036,9.5144 M98.0644,-24.1504 C103.7993,-29.21 107.974,-33.7828 110.5883,-37.8687 C102.238,-34.1998 94.3198,-30.9507 87.8666,-29.0252 C86.1566,-28.5681 85.0378,-27.0833 84.5101,-24.5713 C83.5869,-16.4313 80.7244,-9.6205 75.9225,-4.1388 C67.2645,5.303 58.7223,6.8092 50.2962,0.3797 C47.3041,-1.3945 46.2284,0.3485 48.6179,3.2845 C52.7267,6.6143 57.6325,7.8192 63.3353,6.8993 C70.4767,5.0183 77.9216,-2.534 85.67,-15.7578 C87.7391,-18.8921 90.5577,-18.0099 89.0911,-13.4986 C89.0911,-13.4986 87.8647,-9.5609 87.8647,-9.5609 C87.1977,-8.1388 87.6709,-7.8806 89.2848,-8.7863 C92.3705,-11.9106 95.5982,-14.762 98.9679,-17.3401 C100.7666,-18.8127 100.659,-19.8347 98.6452,-20.4064 C96.1888,-20.4899 95.9952,-21.7379 98.0644,-24.1504 M54.5935,-39.6812 C75.7985,-31.9446 94.9133,-32.821 111.9375,-42.3102 C114.2353,-43.5912 114.0106,-43.4218 114.8223,-45.9833 C120.0355,-62.4354 111.8668,-74.946 88.7765,-83.9416 C82.727,-86.2986 83.3556,-88.9785 89.5665,-87.9561 C93.7567,-87.2657 96.5901,-87.1303 98.0662,-87.5498 C83.8316,-106.8135 65.8866,-114.3874 44.2313,-110.2714 C57.7724,-99.8731 66.4057,-87.2624 70.1306,-72.4395 C72.8756,-61.5163 72.8279,-67.2742 79.7956,-60.9864 C82.1744,-58.8394 83.0898,-56.7628 82.5413,-54.7565 C81.4794,-53.703 79.5287,-54.1334 76.69,-56.0478 C71.6223,-59.4652 71.1391,-61.8039 64.2091,-58.113 C58.5755,-55.1961 53.1532,-49.5369 47.9422,-41.1356 C38.3673,-27.5193 26.49,-16.0723 12.3105,-6.7948 C4.4628,-1.6342 -3.2847,2.5367 -10.9314,5.7185 C-16.4525,8.0153 -15.4074,9.8265 -9.6671,7.6365 C4.4876,2.2333 17.2052,-5.7189 27.4799,-16.9293 C31.3552,-20.8342 34.0377,-20.3548 33.0765,-17.3977 C32.6196,-15.9929 31.1606,-13.962 30.292,-12.6017 C26.7493,-7.0544 19.8845,-0.0658 9.0193,8.1488 C17.432,9.1864 27.2653,7.6913 38.5192,3.6634 C40.7732,-0.2826 43.0111,-3.0366 45.2325,-4.5988 C43.2135,-13.2014 46.7208,-22.2813 55.7544,-31.8385 C54.5853,-34.5233 53.6818,-36.4598 53.044,-37.6478 C52.2825,-39.2255 52.7991,-39.9032 54.5935,-39.6812 M61.7882,-2.0768 C68.383,-4.2559 73.461,-10.2807 77.0221,-20.1509 C78.7475,-24.97 77.8438,-27.2938 74.311,-27.1223 C70.957,-27.7394 67.5142,-28.3419 63.9829,-28.9296 C67.7587,-26.8633 69.308,-24.1092 68.6305,-20.6673 C77.0221,-20.1509 72.1727,-7.4961 60.7554,-2.9805 C59.8411,-2.2774 60.1854,-1.9762 61.7882,-2.0768 M-14.1904,0.5095 C10.275,-11.7515 31.4045,-31.1596 49.1979,-57.7146 C37.4868,-52.5838 26.2981,-53.2293 15.6318,-59.6512 C27.2905,-46.2224 25.1915,-44.7081 9.3351,-55.1083 C5.2822,-45.6538 -1.8184,-36.4015 -11.9668,-27.3515 C-18.3624,-22.6088 -23.1488,-16.8934 -26.3259,-10.2057 C-29.6784,-0.1893 -25.6333,3.3824 -14.1904,0.5095 M9.3351,-82.9934 C11.7319,-79.3821 14.8302,-76.1115 18.6303,-73.1818 C21.1526,-71.9114 21.8195,-72.3416 20.6313,-74.4727 C17.7991,-82.1206 20.0368,-83.3686 27.3446,-78.2167 C38.0297,-73.506 42.6128,-73.6352 41.0938,-78.6041 C37.3979,-84.2131 32.32,-88.5594 25.8599,-91.6433 C7.1569,-99.6367 1.6486,-96.7534 9.3351,-82.9934" style="fill:#00a86b;fill-rule:evenodd;0"/>
    </g>
</svg>
