<?xml version="1.0" encoding="UTF-8"?>
<svg xmlns="http://www.w3.org/2000/svg" xmlns:xlink="http://www.w3.org/1999/xlink" width="26px" height="26px" viewBox="0 0 26 26" version="1.1">
<g id="surface1">
<path style=" stroke:none;fill-rule:nonzero;fill:rgb(96.08%,96.08%,96.08%);fill-opacity:1;" d="M 25.761719 24.605469 L 17.867188 16.660156 C 19.339844 14.898438 20.226562 12.632812 20.226562 10.15625 C 20.226562 4.546875 15.679688 0 10.070312 0 C 4.460938 0 -0.0859375 4.546875 -0.0859375 10.15625 C -0.0859375 15.765625 4.460938 20.3125 10.070312 20.3125 C 12.617188 20.3125 14.945312 19.371094 16.730469 17.820312 L 24.613281 25.753906 C 24.929688 26.070312 25.445312 26.070312 25.761719 25.753906 C 26.078125 25.4375 26.078125 24.921875 25.761719 24.601562 Z M 10.070312 18.699219 C 5.351562 18.699219 1.523438 14.875 1.523438 10.15625 C 1.523438 5.4375 5.347656 1.609375 10.070312 1.609375 C 14.789062 1.609375 18.613281 5.4375 18.613281 10.15625 C 18.613281 14.875 14.789062 18.699219 10.070312 18.699219 Z M 10.070312 18.699219 "/>
</g>
</svg>
