<svg aria-hidden="true" focusable="false" data-prefix="fab" data-icon="youtube-square" class="svg-inline--fa fa-youtube-square fa-w-14" role="img" xmlns="http://www.w3.org/2000/svg" viewBox="0 0 512 512"><path fill="#fff" d="M499.4,0.5H12.6C5.7,0.5,0,6.2,0,13.1v485.9c0,6.9,5.7,12.6,12.6,12.6h486.8c6.9,0,12.6-5.7,12.6-12.6V13.1 C512,6.2,506.3,0.5,499.4,0.5z M465,107.4c-2.2,36-69.2,304.8-69.2,304.8s-4,15.7-18.4,16.3c-5.2,0.2-11.6-0.9-19.2-7.4 c-15.1-13-50.1-37.8-82.7-60.2c-9.8,8.2-29.5,25.2-49.7,45.4c-28.8,28.7-25.1,0-25.1,0l8.8-93.7l0.2,0.1c0.4-1,1.1-1.7,1.1-1.7 S380.4,160.7,384.9,145c0.3-1.2-1-1.8-2.7-1.3c-11.3,4.1-206.3,127.1-227.9,140.7c-1.3,0.8-4.8,0.3-4.8,0.3l-94.6-30.8 c0,0-11.3-4.6-7.7-15c0.7-2.1,2.3-4,6.8-7.1c21-14.6,388.2-146.3,388.2-146.3s10.4-3.5,16.5-1.2c2.8,1.1,4.6,2.3,6.1,6.6 c0.5,1.6,0.9,5,0.8,8.3C465.5,101.7,465.2,103.9,465,107.4z"></path></svg>
